Coordinates
version=1
nRows=8
nColumns=40
inDegrees=yes

Units are S.I. units (second, meters, Newtons, ...)
Angles are in degrees.

endheader
time	pelvis_tilt	pelvis_list	pelvis_rotation	pelvis_tx	pelvis_ty	pelvis_tz	hip_flexion_r	hip_adduction_r	hip_rotation_r	knee_angle_r	knee_angle_r_beta	ankle_angle_r	subtalar_angle_r	mtp_angle_r	hip_flexion_l	hip_adduction_l	hip_rotation_l	knee_angle_l	knee_angle_l_beta	ankle_angle_l	subtalar_angle_l	mtp_angle_l	lumbar_extension	lumbar_bending	lumbar_rotation	arm_flex_r	arm_add_r	arm_rot_r	elbow_flex_r	pro_sup_r	wrist_flex_r	wrist_dev_r	arm_flex_l	arm_add_l	arm_rot_l	elbow_flex_l	pro_sup_l	wrist_flex_l	wrist_dev_l
     24.09664286	     -6.12654386	     -5.16861560	      6.54533864	      0.76917419	      0.92662741	      0.43338804	      8.88109784	      3.57881942	    -18.09533876	     11.94954015	     11.94954015	     11.56517057	     -1.58270337	     -5.48777800	     36.84418823	     -7.01275073	      4.01368107	     31.13746950	     31.13746950	      7.63818950	    -13.98379298	      9.16739660	    -12.54539361	      5.31932243	      3.50956044	     25.44049022	    -17.54109864	      3.52900366	     66.78209028	     45.18273879	      0.00000000	      0.00000000	     -0.50772783	    -13.56721675	    -16.54819901	     32.06319228	     46.03356361	      0.00000000	      0.00000000
     24.09828571	     -6.04819060	     -5.22163576	      6.49740677	      0.76919547	      0.92659508	      0.43343254	      8.78839332	      3.66483286	    -17.92134442	     12.03024542	     12.03024542	     11.83886950	     -1.68843139	     -4.90696738	     36.75760994	     -7.04652388	      4.09775428	     30.91136593	     30.91136593	      7.30533951	    -13.98154427	      8.21351242	    -12.72501335	      5.36235970	      3.72927172	     25.23287163	    -17.61375709	      3.13894426	     67.70225587	     45.16245168	      0.00000000	      0.00000000	     -1.33674243	    -13.68627171	    -15.65817195	     34.09410051	     45.90527753	      0.00000000	      0.00000000
     24.09992857	     -6.08368105	     -5.19935373	      6.55649559	      0.76915542	      0.92663875	      0.43327192	      8.70171589	      3.64864785	    -18.01224019	     11.88327451	     11.88327451	     11.88866984	     -1.57099742	     -4.63780077	     36.65713358	     -6.91863904	      4.25143925	     30.43083959	     30.43083959	      7.03976918	    -13.90758428	      7.73226996	    -12.72132436	      5.31095644	      3.68147388	     25.15166192	    -17.52137336	      3.05553391	     68.04189625	     45.15223505	      0.00000000	      0.00000000	     -1.64111831	    -13.74718084	    -15.21994349	     34.88285167	     45.83971430	      0.00000000	      0.00000000
     24.10157143	     -6.20011998	     -5.18879858	      6.51931751	      0.76907327	      0.92643962	      0.43323044	      8.72093068	      3.64142089	    -18.01382620	     11.71349260	     11.71349260	     11.42215288	     -1.65853428	     -5.99391407	     36.91771886	     -6.90863879	      4.12976471	     30.53988681	     30.53988681	      8.10587711	    -13.08184551	      9.99853504	    -12.52733496	      5.28396024	      3.61539153	     25.47418461	    -17.48430008	      3.65526465	     67.24932514	     45.18451253	      0.00000000	      0.00000000	     -0.54917841	    -13.19603632	    -18.69979230	     32.06104728	     46.40136926	      0.00000000	      0.00000000
     24.10321429	     -6.19485711	     -5.22097861	      6.52170211	      0.76911360	      0.92640994	      0.43314490	      8.62195236	      3.67953851	    -18.11502384	     11.63589691	     11.63589691	     11.54663810	     -1.40191527	     -5.73671576	     36.87449717	     -6.90702379	      4.15521207	     30.26229931	     30.26229931	      7.90885498	    -12.87387805	      9.34718316	    -12.53874366	      5.31258523	      3.59328811	     25.55812561	    -17.38786165	      3.67284116	     67.26744988	     45.18564650	      0.00000000	      0.00000000	     -0.82715694	    -13.28590365	    -18.08722732	     32.39551884	     46.30402817	      0.00000000	      0.00000000
     24.10485714	     -6.21854646	     -5.20201351	      6.52826050	      0.76910421	      0.92637926	      0.43299190	      8.60171486	      3.64794283	    -18.10236733	     11.65766390	     11.65766390	     11.69337576	     -1.37619692	     -5.46336398	     36.79077867	     -6.81075858	      4.27345163	     29.87140195	     29.87140195	      7.61637570	    -12.88493110	      8.76994266	    -12.54535888	      5.26851002	      3.61988700	     25.49462117	    -17.38014311	      3.60460179	     67.54479805	     45.17663659	      0.00000000	      0.00000000	     -1.20350890	    -13.32593197	    -17.66425269	     33.16491521	     46.22256365	      0.00000000	      0.00000000
     24.10650000	     -6.24104693	     -5.21603522	      6.53208144	      0.76906363	      0.92629618	      0.43286559	      8.55300615	      3.65174962	    -18.21791532	     11.60077709	     11.60077709	     11.64617689	     -1.20266150	     -5.75552819	     36.84770131	     -6.79696479	      4.24913263	     29.74815482	     29.74815482	      7.81964805	    -12.48424445	      9.05501418	    -12.48594228	      5.28657389	      3.58526540	     25.75515253	    -17.35814105	      3.99871978	     67.05483110	     45.18548976	      0.00000000	      0.00000000	     -0.87583657	    -13.27413544	    -17.96897989	     32.08984525	     46.26881466	      0.00000000	      0.00000000
     24.10814286	     -6.23311934	     -5.22905310	      6.54067128	      0.76910594	      0.92627573	      0.43273425	      8.46081811	      3.67950350	    -18.17800512	     11.54089750	     11.54089750	     11.75777871	     -1.19655765	     -5.51946240	     36.77257549	     -6.76045645	      4.31492056	     29.43645532	     29.43645532	      7.63003475	    -12.37531763	      8.57488511	    -12.51787233	      5.29286475	      3.56023951	     25.74171631	    -17.33520897	      3.95706054	     67.31648196	     45.17570027	      0.00000000	      0.00000000	     -1.27088982	    -13.28142803	    -17.82313637	     32.80241696	     46.21529474	      0.00000000	      0.00000000
